<?xml version="1.0" standalone="no"?>
 <!DOCTYPE svg PUBLIC "-//W3C//DTD SVG 1.1//EN" 
 "http://www.w3.org/Graphics/SVG/1.1/DTD/svg11.dtd"> 
<svg
  xmlns:svg="http://www.w3.org/2000/svg"
  xmlns="http://www.w3.org/2000/svg"
  xmlns:xlink="http://www.w3.org/1999/xlink"
  version="1.1"
  width="101.4984mm" height="78.5876mm" viewBox="0.0000 0.0000 101.4984 78.5876">
<title>SVG Image created as manette-Edge_Cuts.svg date 2025/03/18 10:28:31 </title>
  <desc>Image generated by PCBNEW </desc>
<g style="fill:#000000; fill-opacity:1.0000;stroke:#000000; stroke-opacity:1.0000;
stroke-linecap:round; stroke-linejoin:round;"
 transform="translate(0 0) scale(1 1)">
</g>
<g style="fill:none; 
stroke:#D0D2CD; stroke-width:0.0500; stroke-opacity:1; 
stroke-linecap:round; stroke-linejoin:round;">
<circle cx="92.5000" cy="67.3400" r="1.5000" /> 
<circle cx="92.5000" cy="27.8400" r="1.5000" /> 
<path d="M3.5000 68.3400 A5.0000 5.0000 0.0 0 0 8.5000 73.3400" />
<path d="M98.5000 26.8400 A5.0000 5.0000 0.0 0 0 93.5000 21.8400" />
<path d="M8.5000 21.8400 A5.0000 5.0000 0.0 0 0 3.5000 26.8400" />
<path d="M3.5000 26.8400
L3.5000 68.3400
" />
<path d="M8.5000 21.8400
L93.5000 21.8400
" />
<path d="M98.5000 26.8400
L98.5000 68.3400
" />
<path d="M93.5000 73.3400
L8.5000 73.3400
" />
<path d="M93.5000 73.3400 A5.0000 5.0000 0.0 0 0 98.5000 68.3400" />
</g>
<g style="fill:none; 
stroke:#D0D2CD; stroke-width:0.0500; stroke-opacity:1; 
stroke-linecap:round; stroke-linejoin:round;">
<circle cx="92.5000" cy="67.3400" r="1.5000" /> 
<circle cx="92.5000" cy="27.8400" r="1.5000" /> 
<path d="M3.5000 68.3400 A5.0000 5.0000 0.0 0 0 8.5000 73.3400" />
<path d="M98.5000 26.8400 A5.0000 5.0000 0.0 0 0 93.5000 21.8400" />
<path d="M8.5000 21.8400 A5.0000 5.0000 0.0 0 0 3.5000 26.8400" />
<path d="M3.5000 26.8400
L3.5000 68.3400
" />
<path d="M8.5000 21.8400
L93.5000 21.8400
" />
<path d="M98.5000 26.8400
L98.5000 68.3400
" />
<path d="M93.5000 73.3400
L8.5000 73.3400
" />
<path d="M93.5000 73.3400 A5.0000 5.0000 0.0 0 0 98.5000 68.3400" />
</g> 
</svg>
